<mxfile host="65bd71144e">
    <diagram id="kgpKYQtTHZ0yAKxKKP6v" name="Page-1">
        <mxGraphModel dx="643" dy="437" grid="1" gridSize="10" guides="1" tooltips="1" connect="1" arrows="1" fold="1" page="1" pageScale="1" pageWidth="850" pageHeight="1100" math="1" shadow="0">
            <root>
                <mxCell id="0"/>
                <mxCell id="1" parent="0"/>
                <mxCell id="26" value="alt" style="shape=umlFrame;tabWidth=110;tabHeight=30;tabPosition=left;html=1;boundedLbl=1;labelInHeader=1;width=65;height=15;" parent="1" vertex="1">
                    <mxGeometry x="100" y="200" width="620" height="140" as="geometry"/>
                </mxCell>
                <mxCell id="27" value="[status == true]" style="text" parent="26" vertex="1">
                    <mxGeometry width="100" height="20" relative="1" as="geometry">
                        <mxPoint x="8" y="10" as="offset"/>
                    </mxGeometry>
                </mxCell>
                <mxCell id="28" value="[else]" style="line;strokeWidth=1;dashed=1;labelPosition=center;verticalLabelPosition=bottom;align=left;verticalAlign=top;spacingLeft=20;spacingTop=15;" parent="26" vertex="1">
                    <mxGeometry y="87.50109495767389" width="620.0000000000002" height="5.599999999999998" as="geometry"/>
                </mxCell>
                <mxCell id="3nuBFxr9cyL0pnOWT2aG-1" value=":Sensor" style="shape=umlLifeline;perimeter=lifelinePerimeter;container=1;collapsible=0;recursiveResize=0;rounded=0;shadow=0;strokeWidth=1;" parent="1" vertex="1">
                    <mxGeometry x="160" y="80" width="80" height="300" as="geometry"/>
                </mxCell>
                <mxCell id="3nuBFxr9cyL0pnOWT2aG-2" value="" style="points=[];perimeter=orthogonalPerimeter;rounded=0;shadow=0;strokeWidth=1;" parent="3nuBFxr9cyL0pnOWT2aG-1" vertex="1">
                    <mxGeometry x="35" y="80" width="10" height="170" as="geometry"/>
                </mxCell>
                <mxCell id="3nuBFxr9cyL0pnOWT2aG-5" value=":Server" style="shape=umlLifeline;perimeter=lifelinePerimeter;container=1;collapsible=0;recursiveResize=0;rounded=0;shadow=0;strokeWidth=1;" parent="1" vertex="1">
                    <mxGeometry x="320" y="80" width="80" height="300" as="geometry"/>
                </mxCell>
                <mxCell id="36" style="edgeStyle=none;html=1;dashed=1;" parent="3nuBFxr9cyL0pnOWT2aG-5" source="3nuBFxr9cyL0pnOWT2aG-6" target="3nuBFxr9cyL0pnOWT2aG-5" edge="1">
                    <mxGeometry relative="1" as="geometry"/>
                </mxCell>
                <mxCell id="3nuBFxr9cyL0pnOWT2aG-6" value="" style="points=[];perimeter=orthogonalPerimeter;rounded=0;shadow=0;strokeWidth=1;" parent="3nuBFxr9cyL0pnOWT2aG-5" vertex="1">
                    <mxGeometry x="35" y="80" width="10" height="170" as="geometry"/>
                </mxCell>
                <mxCell id="3nuBFxr9cyL0pnOWT2aG-8" value="POST_Data" style="verticalAlign=bottom;endArrow=block;entryX=0;entryY=0;shadow=0;strokeWidth=1;" parent="1" source="3nuBFxr9cyL0pnOWT2aG-2" target="3nuBFxr9cyL0pnOWT2aG-6" edge="1">
                    <mxGeometry x="0.0023" relative="1" as="geometry">
                        <mxPoint x="275" y="160" as="sourcePoint"/>
                        <mxPoint as="offset"/>
                        <Array as="points">
                            <mxPoint x="220" y="160"/>
                        </Array>
                    </mxGeometry>
                </mxCell>
                <mxCell id="2" value=":Database" style="shape=umlLifeline;perimeter=lifelinePerimeter;container=1;collapsible=0;recursiveResize=0;rounded=0;shadow=0;strokeWidth=1;" parent="1" vertex="1">
                    <mxGeometry x="480" y="80" width="80" height="300" as="geometry"/>
                </mxCell>
                <mxCell id="3" value="" style="points=[];perimeter=orthogonalPerimeter;rounded=0;shadow=0;strokeWidth=1;" parent="2" vertex="1">
                    <mxGeometry x="35" y="80" width="10" height="80" as="geometry"/>
                </mxCell>
                <mxCell id="17" value=":Dashboard" style="shape=umlLifeline;perimeter=lifelinePerimeter;container=1;collapsible=0;recursiveResize=0;rounded=0;shadow=0;strokeWidth=1;" parent="1" vertex="1">
                    <mxGeometry x="640" y="80" width="80" height="300" as="geometry"/>
                </mxCell>
                <mxCell id="18" value="" style="points=[];perimeter=orthogonalPerimeter;rounded=0;shadow=0;strokeWidth=1;" parent="17" vertex="1">
                    <mxGeometry x="35" y="180" width="10" height="20" as="geometry"/>
                </mxCell>
                <mxCell id="21" value="isAvailable(id)" style="edgeStyle=none;html=1;entryX=0.021;entryY=0.253;entryDx=0;entryDy=0;entryPerimeter=0;" parent="1" edge="1">
                    <mxGeometry relative="1" as="geometry">
                        <mxPoint x="365" y="171.65000000000003" as="sourcePoint"/>
                        <mxPoint x="515.21" y="171.65000000000003" as="targetPoint"/>
                    </mxGeometry>
                </mxCell>
                <mxCell id="22" value="status&amp;nbsp;" style="edgeStyle=none;html=1;dashed=1;entryX=0.908;entryY=0.332;entryDx=0;entryDy=0;entryPerimeter=0;endArrow=open;endFill=0;" parent="1" edge="1">
                    <mxGeometry x="-0.1386" relative="1" as="geometry">
                        <mxPoint x="515" y="188.92000000000002" as="sourcePoint"/>
                        <mxPoint x="364.0799999999999" y="188.92000000000002" as="targetPoint"/>
                        <mxPoint as="offset"/>
                    </mxGeometry>
                </mxCell>
                <mxCell id="30" value="OK" style="edgeStyle=none;html=1;dashed=1;endArrow=open;endFill=0;" parent="1" edge="1">
                    <mxGeometry relative="1" as="geometry">
                        <Array as="points">
                            <mxPoint x="310" y="249"/>
                        </Array>
                        <mxPoint x="355" y="249" as="sourcePoint"/>
                        <mxPoint x="200" y="249" as="targetPoint"/>
                    </mxGeometry>
                </mxCell>
                <mxCell id="35" value="unknown sensor" style="edgeStyle=none;html=1;dashed=1;endArrow=open;endFill=0;" parent="1" edge="1">
                    <mxGeometry relative="1" as="geometry">
                        <mxPoint x="355" y="310" as="sourcePoint"/>
                        <mxPoint x="205" y="310" as="targetPoint"/>
                    </mxGeometry>
                </mxCell>
                <mxCell id="37" value="showData(data)" style="edgeStyle=none;html=1;entryX=0.009;entryY=0.366;entryDx=0;entryDy=0;entryPerimeter=0;" parent="1" edge="1">
                    <mxGeometry relative="1" as="geometry">
                        <mxPoint x="365" y="269" as="sourcePoint"/>
                        <mxPoint x="675.0899999999999" y="268.56000000000006" as="targetPoint"/>
                    </mxGeometry>
                </mxCell>
                <mxCell id="39" value="saveData(Data)" style="edgeStyle=none;html=1;" parent="1" edge="1">
                    <mxGeometry x="0.0027" relative="1" as="geometry">
                        <mxPoint x="365" y="208" as="sourcePoint"/>
                        <mxPoint x="515" y="208" as="targetPoint"/>
                        <mxPoint as="offset"/>
                    </mxGeometry>
                </mxCell>
                <mxCell id="40" value="respons" style="edgeStyle=none;html=1;entryX=0.908;entryY=0.626;entryDx=0;entryDy=0;entryPerimeter=0;dashed=1;endArrow=open;endFill=0;" parent="1" edge="1">
                    <mxGeometry relative="1" as="geometry">
                        <mxPoint x="515" y="230.56000000000006" as="sourcePoint"/>
                        <mxPoint x="364.0799999999999" y="230.56000000000006" as="targetPoint"/>
                    </mxGeometry>
                </mxCell>
                <mxCell id="41" value="" style="group;dropTarget=0;pointerEvents=0;" parent="1" vertex="1">
                    <mxGeometry x="70" width="640" height="45" as="geometry"/>
                </mxCell>
                <UserObject label="Sensor :PostData" lucidchartObjectId="xs.zbXxAc2O0" id="42">
                    <mxCell style="points=[[0.318,0.967,0],[0.693,0.967,0]];html=1;overflow=block;blockSpacing=1;whiteSpace=wrap;fontSize=19.7;fontColor=#a9afb8;fontStyle=1;align=center;spacingLeft=7;spacingRight=7;spacingTop=2;spacing=3;strokeOpacity=0;fillOpacity=0;rounded=1;absoluteArcSize=1;arcSize=12;fillColor=#ffffff;strokeWidth=1.5;" parent="41" vertex="1">
                        <mxGeometry width="640" height="31" as="geometry"/>
                    </mxCell>
                </UserObject>
                <UserObject label="Aland Mariwan  |  %date{mmmm d, yyyy}%" placeholders="1" lucidchartObjectId="xs.z2XKQA_yW" id="43">
                    <mxCell style="html=1;overflow=block;blockSpacing=1;whiteSpace=wrap;fontSize=11.5;fontColor=#a9afb8;align=center;spacingLeft=7;spacingRight=7;spacingTop=2;spacing=3;strokeOpacity=0;fillOpacity=0;rounded=1;absoluteArcSize=1;arcSize=12;fillColor=#ffffff;strokeWidth=1.5;" parent="41" vertex="1">
                        <mxGeometry y="31" width="640" height="14" as="geometry"/>
                    </mxCell>
                </UserObject>
                <UserObject label="" lucidchartObjectId="xs.zP2.pqnG-" id="44">
                    <mxCell style="html=1;jettySize=18;whiteSpace=wrap;fontSize=13;fontFamily=Helvetica;strokeColor=#a9afb8;strokeOpacity=100;strokeWidth=1.5;rounded=0;startArrow=none;endArrow=none;" parent="41" edge="1">
                        <mxGeometry width="100" height="100" relative="1" as="geometry">
                            <Array as="points">
                                <mxPoint x="203" y="50" generated="1"/>
                                <mxPoint x="444" y="50" generated="1"/>
                            </Array>
                            <mxPoint x="200" y="50" as="sourcePoint"/>
                            <mxPoint x="444" y="50" as="targetPoint"/>
                        </mxGeometry>
                    </mxCell>
                </UserObject>
            </root>
        </mxGraphModel>
    </diagram>
</mxfile>
